<svg width="209" height="200" viewBox="0 0 209 200" fill="none" xmlns="http://www.w3.org/2000/svg">
<path d="M89.419 37.881L97.076 33.46L104.733 29.039L112.39 33.46L120.047 37.881L127.704 42.302L135.361 46.723L143.018 51.144L150.675 55.565L158.332 59.986L165.989 64.407V73.248M81.763 42.302L89.42 37.881M58.792 143.978L51.135 139.557L43.478 135.136V126.295V117.454V108.613V99.772V90.931V82.09V73.249V64.408L51.135 59.987L58.792 55.566L66.449 51.145L74.106 46.724M112.39 166.082L104.733 170.503L97.076 166.082L89.419 161.661L81.762 157.24L74.105 152.819M165.989 99.771V108.612V117.453V126.294V135.135L158.332 139.556L150.675 143.977L143.018 148.398L135.361 152.819L127.704 157.24L120.047 161.661" stroke="url(#paint0_linear_6_86)" stroke-width="2" stroke-miterlimit="10"/>
<path d="M102.905 155.168V152.731H122.993L159.728 131.522C159.728 131.522 159.728 126.597 159.728 119.491C159.699 119.246 159.679 118.998 159.647 118.748C159.647 114.723 151.273 115.333 151.273 113.657C151.273 110.686 159.575 113.124 159.729 107.092C159.729 106.794 159.729 106.496 159.729 106.197C159.729 104.882 159.729 103.546 159.729 102.209H148.911V99.772H159.728C159.728 98.617 159.728 97.461 159.728 96.312C159.728 95.9 159.722 95.49 159.69 95.08C159.69 91.315 153.481 92.203 153.481 89.969C153.481 87.76 159.407 86.672 163.461 85.47C165.668 84.815 171.076 84.028 171.076 82.225C171.076 79.458 159.751 80.067 159.751 77.21C159.73 76.969 159.728 76.732 159.728 76.498C159.728 71.357 159.728 68.022 159.728 68.022L104.733 36.27L51.831 66.814H86.928V69.251H49.739C49.739 71.951 49.739 78.873 49.739 87.189C49.739 92.254 60.022 91.934 60.022 93.625C60.022 95.047 53.582 94.59 53.582 95.49C53.582 96.189 54.995 96.766 54.995 97.002C54.995 98.424 45.643 97.067 45.017 99.719C44.457 102.091 48.673 102.156 49.581 104.634C49.652 104.954 49.677 105.274 49.739 105.593C51.111 113.125 62.079 109.24 62.079 111.906C62.079 113.709 49.794 112.896 49.794 117.242C49.776 117.538 49.766 117.831 49.739 118.122C49.739 119.321 49.739 120.459 49.739 121.541H59.099V123.978H49.739C49.739 128.582 49.739 131.523 49.739 131.523L104.734 163.275L118.772 155.17H102.905V155.168Z" fill="url(#paint1_linear_6_86)"/>
<path d="M184.495 139.63V137.193H191.136C191.136 136.33 191.136 135.441 191.136 134.511C191.136 134.056 191.136 130.885 191.165 130.415C193.699 126.26 202.23 127.394 202.23 123.941C202.23 122.164 197.411 120.457 194.412 118.601C193.953 118.317 193.537 117.969 193.204 117.543C192.117 116.15 189.827 114.589 191.137 114.003C197.013 111.374 185.905 109.521 188.622 107.743C190.514 106.505 182.935 106.169 182.935 104.29C182.935 103.173 188.737 101.735 189.181 101.548C193.396 99.773 200.184 97.269 191.618 93.728C189.319 92.777 191.34 89.119 191.177 88.475C191.255 85.377 195.955 87.466 197.515 84.958C197.818 84.47 198.277 84.089 198.848 84.029C199.23 83.989 199.613 83.956 199.994 83.926C204.269 83.593 208.592 83.504 208.592 80.559C208.592 77.512 199.205 75.576 198.472 75.437C195.45 74.865 193.373 73.544 191.995 71.837C191.42 71.125 191.138 70.218 191.138 69.303C191.138 69.299 191.138 69.294 191.138 69.29C191.138 57.858 191.138 49.889 191.138 49.889L141.602 21.288H118.39L179.532 56.588C179.532 56.588 179.532 61.819 179.532 69.705C179.559 70.232 179.589 70.77 179.67 71.317C179.67 75.343 190.045 75.343 190.045 78.999C190.045 82.655 179.061 82.249 179.061 86.5C179.061 87.835 180.455 88.482 181.266 88.9C188.454 92.606 183.465 98.462 178.496 101.242C177.157 101.991 172.932 103.78 172.983 106.318C173.043 109.314 182.529 112.716 185.119 114.595C192.495 119.946 179.552 126.262 179.552 131.765C179.552 132.279 179.531 133.1 179.531 133.487C179.531 139.297 179.531 142.954 179.531 142.954L157.321 155.777H171.078V158.214H153.099L104.735 186.137L29.939 142.953C29.939 142.953 29.939 137.487 29.939 129.306C29.939 128.852 29.939 128.389 29.967 127.918C31.613 122.872 38.925 122.719 38.925 120.434C38.925 117.793 31.765 116.778 28.904 110.383C28.618 109.743 28.535 108.837 27.928 108.628C2.26301 99.769 29.89 103.169 29.89 93.589C29.912 93.111 29.922 92.633 29.939 92.157C29.939 89.3 29.939 86.49 29.939 83.777C29.939 83.317 29.938 82.859 29.927 82.405C29.927 78.845 16.328 75.951 16.328 73.31C16.328 70.06 29.175 70.466 29.923 65.568C29.938 64.877 29.938 64.218 29.938 63.595C29.938 63.333 29.938 63.099 29.938 62.85H24.474V60.413H29.938C29.938 57.989 29.938 56.586 29.938 56.586L104.734 13.402L114.166 18.848H137.378L104.733 0L41.919 36.267H51.723V38.704H37.698L18.331 49.886C18.331 49.886 18.331 55.591 18.331 64.273C18.331 64.668 18.325 65.29 18.221 65.769C17.649 68.4 12.654 69.069 12.104 69.175C8.164 69.932 4.08902 71.23 4.08902 74.073C4.08902 76.764 8.15101 78.085 11.062 78.68C11.207 78.71 11.351 78.74 11.497 78.771C12.176 78.917 12.776 79.388 12.977 80.053C13.917 83.163 18.332 81.909 18.332 83.76C18.332 84.277 18.332 84.796 18.332 85.317C18.332 85.443 18.332 85.575 18.332 85.701H27.189V88.138H18.332C18.332 89.136 18.332 90.123 18.332 91.133C18.332 91.623 18.332 92.115 18.332 92.607C18.332 102.102 0 99.157 0 102.402C0 106.566 11.218 105.476 18.23 110.404C20.289 111.851 26.687 116.98 26.687 119.925C26.687 121.9 22.072 122.793 19.346 124.371C18.716 124.736 18.352 125.428 18.346 126.155C18.341 126.809 18.337 127.535 18.332 127.82C18.332 140.538 18.332 149.651 18.332 149.651L41.602 163.087H54.704V165.525H45.824L104.734 199.538L120.796 190.265H97.596V187.828H125.017L191.136 149.653C191.136 149.653 191.136 145.804 191.136 139.629H184.495V139.63Z" fill="url(#paint2_linear_6_86)"/>
<path d="M138.089 68.882H198.668" stroke="white" stroke-width="2" stroke-miterlimit="10"/>
<path d="M114.564 116.541H125.001" stroke="white" stroke-width="3" stroke-miterlimit="10"/>
<path d="M125.001 166.216H152.53" stroke="white" stroke-width="4" stroke-miterlimit="10"/>
<defs>
<linearGradient id="paint0_linear_6_86" x1="55.6344" y1="50.672" x2="153.832" y2="148.87" gradientUnits="userSpaceOnUse">
<stop stop-color="#18FFFF"/>
<stop offset="1" stop-color="#FFEA00"/>
</linearGradient>
<linearGradient id="paint1_linear_6_86" x1="61.8029" y1="56.8405" x2="148.106" y2="143.144" gradientUnits="userSpaceOnUse">
<stop stop-color="#FFFF00"/>
<stop offset="0.4866" stop-color="#FF4081"/>
<stop offset="1" stop-color="#283593"/>
</linearGradient>
<linearGradient id="paint2_linear_6_86" x1="36.5905" y1="31.628" x2="172.876" y2="167.914" gradientUnits="userSpaceOnUse">
<stop stop-color="#D500F9"/>
<stop offset="1" stop-color="#18FFFF"/>
</linearGradient>
</defs>
</svg>
