<svg width="250" height="250" viewBox="0 0 250 250" fill="none" xmlns="http://www.w3.org/2000/svg">
<rect width="250" height="250" rx="20" fill="#212121"/>
<path d="M110.419 62.881L118.076 58.46L125.733 54.039L133.39 58.46L141.047 62.881L148.704 67.302L156.361 71.723L164.018 76.144L171.675 80.565L179.332 84.986L186.989 89.407V98.248M102.763 67.302L110.42 62.881M79.792 168.978L72.135 164.557L64.478 160.136V151.295V142.454V133.613V124.772V115.931V107.09V98.249V89.408L72.135 84.987L79.792 80.566L87.449 76.145L95.106 71.724M133.39 191.082L125.733 195.503L118.076 191.082L110.419 186.661L102.762 182.24L95.105 177.819M186.989 124.771V133.612V142.453V151.294V160.135L179.332 164.556L171.675 168.977L164.018 173.398L156.361 177.819L148.704 182.24L141.047 186.661" stroke="url(#paint0_linear_6_87)" stroke-width="2" stroke-miterlimit="10"/>
<path d="M123.905 180.168V177.731H143.993L180.728 156.522C180.728 156.522 180.728 151.597 180.728 144.491C180.699 144.246 180.679 143.998 180.647 143.748C180.647 139.723 172.273 140.333 172.273 138.657C172.273 135.686 180.575 138.124 180.729 132.092C180.729 131.794 180.729 131.496 180.729 131.197C180.729 129.882 180.729 128.546 180.729 127.209H169.911V124.772H180.728C180.728 123.617 180.728 122.461 180.728 121.312C180.728 120.9 180.722 120.49 180.69 120.08C180.69 116.315 174.481 117.203 174.481 114.969C174.481 112.76 180.407 111.672 184.461 110.47C186.668 109.815 192.076 109.028 192.076 107.225C192.076 104.458 180.751 105.067 180.751 102.21C180.73 101.969 180.728 101.732 180.728 101.498C180.728 96.357 180.728 93.022 180.728 93.022L125.733 61.27L72.831 91.814H107.928V94.251H70.739C70.739 96.951 70.739 103.873 70.739 112.189C70.739 117.254 81.022 116.934 81.022 118.625C81.022 120.047 74.582 119.59 74.582 120.49C74.582 121.189 75.995 121.766 75.995 122.002C75.995 123.424 66.643 122.067 66.017 124.719C65.457 127.091 69.673 127.156 70.581 129.634C70.652 129.954 70.677 130.274 70.739 130.593C72.111 138.125 83.079 134.24 83.079 136.906C83.079 138.709 70.794 137.896 70.794 142.242C70.776 142.538 70.766 142.831 70.739 143.122C70.739 144.321 70.739 145.459 70.739 146.541H80.099V148.978H70.739C70.739 153.582 70.739 156.523 70.739 156.523L125.734 188.275L139.772 180.17H123.905V180.168Z" fill="url(#paint1_linear_6_87)"/>
<path d="M205.495 164.63V162.193H212.136C212.136 161.33 212.136 160.441 212.136 159.511C212.136 159.056 212.136 155.885 212.165 155.415C214.699 151.26 223.23 152.394 223.23 148.941C223.23 147.164 218.411 145.457 215.412 143.601C214.953 143.317 214.537 142.969 214.204 142.543C213.117 141.15 210.827 139.589 212.137 139.003C218.013 136.374 206.905 134.521 209.622 132.743C211.514 131.505 203.935 131.169 203.935 129.29C203.935 128.173 209.737 126.735 210.181 126.548C214.396 124.773 221.184 122.269 212.618 118.728C210.319 117.777 212.34 114.119 212.177 113.475C212.255 110.377 216.955 112.466 218.515 109.958C218.818 109.47 219.277 109.089 219.848 109.029C220.23 108.989 220.613 108.956 220.994 108.926C225.269 108.593 229.592 108.504 229.592 105.559C229.592 102.512 220.205 100.576 219.472 100.437C216.45 99.865 214.373 98.544 212.995 96.837C212.42 96.125 212.138 95.218 212.138 94.303C212.138 94.299 212.138 94.294 212.138 94.29C212.138 82.858 212.138 74.889 212.138 74.889L162.602 46.288H139.39L200.532 81.588C200.532 81.588 200.532 86.819 200.532 94.705C200.559 95.232 200.589 95.77 200.67 96.317C200.67 100.343 211.045 100.343 211.045 103.999C211.045 107.655 200.061 107.249 200.061 111.5C200.061 112.835 201.455 113.482 202.266 113.9C209.454 117.606 204.465 123.462 199.496 126.242C198.157 126.991 193.932 128.78 193.983 131.318C194.043 134.314 203.529 137.716 206.119 139.595C213.495 144.946 200.552 151.262 200.552 156.765C200.552 157.279 200.531 158.1 200.531 158.487C200.531 164.297 200.531 167.954 200.531 167.954L178.321 180.777H192.078V183.214H174.099L125.735 211.137L50.939 167.953C50.939 167.953 50.939 162.487 50.939 154.306C50.939 153.852 50.939 153.389 50.967 152.918C52.613 147.872 59.925 147.719 59.925 145.434C59.925 142.793 52.765 141.778 49.904 135.383C49.618 134.743 49.535 133.837 48.928 133.628C23.263 124.769 50.89 128.169 50.89 118.589C50.912 118.111 50.922 117.633 50.939 117.157C50.939 114.3 50.939 111.49 50.939 108.777C50.939 108.317 50.938 107.859 50.927 107.405C50.927 103.845 37.328 100.951 37.328 98.31C37.328 95.06 50.175 95.466 50.923 90.568C50.938 89.877 50.938 89.218 50.938 88.595C50.938 88.333 50.938 88.099 50.938 87.85H45.474V85.413H50.938C50.938 82.989 50.938 81.586 50.938 81.586L125.734 38.402L135.166 43.848H158.378L125.733 25L62.919 61.267H72.723V63.704H58.698L39.331 74.886C39.331 74.886 39.331 80.591 39.331 89.273C39.331 89.668 39.325 90.29 39.221 90.769C38.649 93.4 33.654 94.069 33.104 94.175C29.164 94.932 25.089 96.23 25.089 99.073C25.089 101.764 29.151 103.085 32.062 103.68C32.207 103.71 32.351 103.74 32.497 103.771C33.176 103.917 33.776 104.388 33.977 105.053C34.917 108.163 39.332 106.909 39.332 108.76C39.332 109.277 39.332 109.796 39.332 110.317C39.332 110.443 39.332 110.575 39.332 110.701H48.189V113.138H39.332C39.332 114.136 39.332 115.123 39.332 116.133C39.332 116.623 39.332 117.115 39.332 117.607C39.332 127.102 21 124.157 21 127.402C21 131.566 32.218 130.476 39.23 135.404C41.289 136.851 47.687 141.98 47.687 144.925C47.687 146.9 43.072 147.793 40.346 149.371C39.716 149.736 39.352 150.428 39.346 151.155C39.341 151.809 39.337 152.535 39.332 152.82C39.332 165.538 39.332 174.651 39.332 174.651L62.602 188.087H75.704V190.525H66.824L125.734 224.538L141.796 215.265H118.596V212.828H146.017L212.136 174.653C212.136 174.653 212.136 170.804 212.136 164.629H205.495V164.63Z" fill="url(#paint2_linear_6_87)"/>
<path d="M159.089 93.882H219.668" stroke="white" stroke-width="2" stroke-miterlimit="10"/>
<path d="M135.564 141.541H146.001" stroke="white" stroke-width="3" stroke-miterlimit="10"/>
<path d="M146.001 191.216H173.53" stroke="white" stroke-width="4" stroke-miterlimit="10"/>
<defs>
<linearGradient id="paint0_linear_6_87" x1="76.6344" y1="75.672" x2="174.832" y2="173.87" gradientUnits="userSpaceOnUse">
<stop stop-color="#18FFFF"/>
<stop offset="1" stop-color="#FFEA00"/>
</linearGradient>
<linearGradient id="paint1_linear_6_87" x1="82.8029" y1="81.8405" x2="169.106" y2="168.144" gradientUnits="userSpaceOnUse">
<stop stop-color="#FFFF00"/>
<stop offset="0.4866" stop-color="#FF4081"/>
<stop offset="1" stop-color="#283593"/>
</linearGradient>
<linearGradient id="paint2_linear_6_87" x1="57.5905" y1="56.628" x2="193.876" y2="192.914" gradientUnits="userSpaceOnUse">
<stop stop-color="#D500F9"/>
<stop offset="1" stop-color="#18FFFF"/>
</linearGradient>
</defs>
</svg>
