<svg width="1500" height="1500" viewBox="0 0 1500 1500" fill="none" xmlns="http://www.w3.org/2000/svg">
<rect width="1500" height="1500" rx="100" fill="url(#paint0_linear_10_523)"/>
<path d="M1063.36 714.457H1022.33V760.011H1063.78C1089.62 760.011 1097.43 753.45 1097.43 737.439C1097.43 721.428 1089.22 714.457 1063.36 714.457Z" fill="white"/>
<path d="M1239.15 492.041C1188.48 469.52 1128.97 459.069 1059.01 459.069H739.748V552.886C721.477 516.487 684.885 487.739 626.774 468.724C582.517 453.433 525.42 447 453.044 447C308.293 447 207.761 471.934 153.887 538.686C127.348 570.849 113.674 615.889 111.26 672.986H353.321C354.13 653.688 368.6 641.619 424.9 641.619C481.201 641.619 491.652 650.466 491.652 663.331C491.652 676.196 482.806 685.042 432.142 685.042H370.218V806.477H431.333C490.844 806.477 498.881 810.496 498.881 825.775C498.881 839.448 481.997 850.709 428.919 850.709C369.409 850.709 358.957 841.862 356.544 821.756H100C100.809 895.736 116.884 954.451 164.338 993.046C212.589 1033.26 294.619 1053.37 432.938 1053.37C595.587 1053.37 695.439 1016.09 739.735 952.204V1038.07H1060.62C1196.52 1038.07 1300.28 994.651 1357.37 908.601C1386.33 865.179 1400 812.101 1400 748.558C1400 620.691 1342.9 535.45 1239.16 492.015L1239.15 492.041ZM739.735 783.43C716.367 757.662 679.338 743.59 634.799 735.706C686.965 723.586 721.875 702.825 739.735 672.318V783.43ZM1065.83 855.626H1022.33V906.098H899.637V610.638H1065.01C1176.21 610.638 1223.41 654.549 1223.41 736.618C1223.41 818.687 1174.17 855.626 1065.83 855.626Z" fill="white"/>
<defs>
<linearGradient id="paint0_linear_10_523" x1="-5.01976e-06" y1="1493.5" x2="1500" y2="6.50175" gradientUnits="userSpaceOnUse">
<stop stop-color="#24FFC0"/>
<stop offset="1" stop-color="#4589E3"/>
</linearGradient>
</defs>
</svg>
