<svg width="1100" height="1100" viewBox="0 0 1100 1100" fill="none" xmlns="http://www.w3.org/2000/svg">
<path d="M815.154 519.31H780.433V557.855H815.502C837.371 557.855 843.977 552.304 843.977 538.756C843.977 525.209 837.035 519.31 815.154 519.31Z" fill="#1BF8FE"/>
<path d="M963.895 331.111C921.025 312.056 870.67 303.212 811.471 303.212H541.325V382.596C525.865 351.796 494.903 327.472 445.732 311.382C408.283 298.443 359.971 293 298.73 293C176.248 293 91.1823 314.098 45.5966 370.58C23.1405 397.795 11.5703 435.906 9.52781 484.219H214.348C215.033 467.89 227.277 457.678 274.916 457.678C322.555 457.678 331.398 465.163 331.398 476.049C331.398 486.935 323.913 494.42 281.043 494.42H228.646V597.173H280.359C330.714 597.173 337.515 600.573 337.515 613.502C337.515 625.072 323.228 634.6 278.316 634.6C227.961 634.6 219.118 627.114 217.075 610.101H0C0.684438 672.7 14.2863 722.381 54.44 755.039C95.2672 789.065 164.678 806.078 281.717 806.078C419.343 806.078 503.833 774.54 541.314 720.48V793.139H812.829C927.826 793.139 1015.62 756.397 1063.93 683.586C1088.43 646.843 1100 601.931 1100 548.165C1100 439.969 1051.69 367.843 963.905 331.09L963.895 331.111ZM541.314 577.672C521.542 555.868 490.209 543.96 452.522 537.29C496.663 527.034 526.202 509.467 541.314 483.654V577.672ZM817.24 638.761H780.433V681.467H676.615V431.463H816.545C910.639 431.463 950.575 468.618 950.575 538.061C950.575 607.505 908.911 638.761 817.24 638.761Z" fill="url(#paint0_linear_10_528)"/>
<defs>
<linearGradient id="paint0_linear_10_528" x1="783.736" y1="293" x2="316.264" y2="806.078" gradientUnits="userSpaceOnUse">
<stop stop-color="#18FFFF"/>
<stop offset="1" stop-color="#4589E3"/>
</linearGradient>
</defs>
</svg>
