<svg width="1500" height="1500" viewBox="0 0 1500 1500" fill="none" xmlns="http://www.w3.org/2000/svg">
<rect width="1500" height="1500" rx="400" fill="url(#paint0_linear_10_523)"/>
<path d="M1015.15 719.31H980.433V757.855H1015.5C1037.37 757.855 1043.98 752.304 1043.98 738.756C1043.98 725.209 1037.03 719.31 1015.15 719.31Z" fill="black"/>
<path d="M1163.89 531.111C1121.02 512.056 1070.67 503.212 1011.47 503.212H741.325V582.596C725.865 551.796 694.903 527.472 645.732 511.382C608.283 498.443 559.971 493 498.73 493C376.248 493 291.182 514.098 245.597 570.58C223.141 597.795 211.57 635.906 209.528 684.219H414.348C415.033 667.89 427.277 657.678 474.916 657.678C522.555 657.678 531.398 665.163 531.398 676.049C531.398 686.935 523.913 694.42 481.043 694.42H428.646V797.173H480.359C530.714 797.173 537.515 800.573 537.515 813.502C537.515 825.072 523.228 834.6 478.316 834.6C427.961 834.6 419.118 827.114 417.075 810.101H200C200.684 872.7 214.286 922.381 254.44 955.039C295.267 989.065 364.678 1006.08 481.717 1006.08C619.343 1006.08 703.833 974.54 741.314 920.48V993.139H1012.83C1127.83 993.139 1215.62 956.397 1263.93 883.586C1288.43 846.843 1300 801.931 1300 748.165C1300 639.969 1251.69 567.843 1163.91 531.09L1163.89 531.111ZM741.314 777.672C721.542 755.868 690.209 743.96 652.522 737.29C696.663 727.034 726.202 709.467 741.314 683.654V777.672ZM1017.24 838.761H980.433V881.467H876.615V631.463H1016.54C1110.64 631.463 1150.58 668.618 1150.58 738.061C1150.58 807.505 1108.91 838.761 1017.24 838.761Z" fill="black"/>
<defs>
<linearGradient id="paint0_linear_10_523" x1="-5.01976e-06" y1="1493.5" x2="1500" y2="6.50175" gradientUnits="userSpaceOnUse">
<stop stop-color="#24FFC0"/>
<stop offset="1" stop-color="#4589E3"/>
</linearGradient>
</defs>
</svg>
