<svg width="1300" height="607" viewBox="0 0 1300 607" fill="none" xmlns="http://www.w3.org/2000/svg">
<path d="M829.671 286.717L828.546 292.012L821.323 314.151H837.853L830.788 292.169L829.671 286.717Z" fill="white"/>
<path d="M1299.57 283.35H1251.31C1249.55 278.7 1243.61 276.292 1233.5 276.292C1224.67 276.292 1222.1 278.543 1222.1 280.942C1222.1 281.745 1222.91 282.705 1224.19 283.192C1227.24 284.475 1235.1 285.277 1253.23 286.56C1264.62 287.362 1274.08 288.967 1281.79 291.532C1289.95 294.199 1296.01 298.038 1299.98 303.491C1299.98 302.853 1300 302.232 1300 301.587C1300 295.395 1299.83 289.337 1299.56 283.35H1299.57Z" fill="white"/>
<path d="M703.082 286.394H687.041V304.206H703.248C713.357 304.206 716.402 301.641 716.402 295.379C716.402 289.116 713.192 286.394 703.082 286.394Z" fill="white"/>
<path d="M1239.27 364.692C1222.43 364.692 1209.43 363.087 1199.48 359.877C1179.75 353.142 1171.08 340.947 1168.36 323.301H1224.83C1226.6 328.595 1235.58 330.523 1243.93 330.523C1252.28 330.523 1255 329.083 1255 326.511C1255 325.228 1254.35 324.426 1252.59 323.781C1249.54 322.333 1241.2 321.373 1222.43 320.091C1188.09 317.683 1171.25 307.896 1171.25 284.632C1171.25 275.647 1173.81 268.11 1178.95 261.69C1189.22 248.858 1208.47 241.958 1235.1 241.958C1248.26 241.958 1259.17 243.406 1268.47 245.971C1282.38 249.897 1292.23 257.355 1298.69 269.243C1289.71 159.239 1233.9 84.694 1139.16 45.0416C1088.5 22.5248 1028.99 12.0688 959.021 12.0688H639.749V105.881C621.48 69.4782 584.88 40.7381 526.771 21.7144C482.539 6.43565 425.437 0 353.064 0C208.301 0 107.777 24.9322 53.8926 91.6804C27.3554 123.851 13.6816 179.466 11.2663 236.569H253.335C254.137 217.27 268.613 205.201 324.913 205.201C381.214 205.201 391.662 214.044 391.662 226.915C391.662 239.787 382.819 248.63 332.152 248.63H270.226V370.065H331.349C390.859 370.065 398.9 374.086 398.9 389.364C398.9 403.038 382.008 414.297 328.934 414.297C269.424 414.297 258.968 405.453 256.552 385.344H0C0.802489 459.33 16.8916 507.456 64.3407 546.062C112.592 586.273 194.627 606.382 332.954 606.382C495.608 606.382 595.462 569.114 639.749 505.222V591.096H960.634C1096.55 591.096 1200.29 547.667 1257.39 461.62C1279.31 428.741 1292.45 390.316 1297.55 346.03C1287.87 357.753 1269.4 364.692 1239.28 364.692H1239.27ZM687.04 341.585V361.317H638.985C615.611 335.55 579.357 319.878 534.811 311.995C586.981 299.871 621.118 276.316 638.985 245.805H703.727C747.203 245.805 765.661 262.972 765.661 295.056C765.661 327.14 746.409 341.585 704.05 341.585H687.04ZM852.935 361.317L848.285 346.88H810.584L805.935 361.317H753.954L800.16 245.798H859.843L904.766 361.317H852.943H852.935ZM967.966 325.063C976.794 325.063 981.923 322.333 984.488 317.203H961.869V297.149H1038.08V361.324H992.033L989.146 329.075C988.021 337.903 985.936 344.795 982.726 349.932C976.471 360.199 965.559 364.369 948.549 364.369C914.853 364.369 898.174 345.597 898.174 307.573C898.174 264.735 924.168 242.753 968.926 242.753C1009.84 242.753 1034.87 257.512 1038.24 291.846H982.246C979.839 287.834 976.149 285.592 967.966 285.592C955.937 285.592 950.32 292.011 950.32 306.126C950.32 318.32 954.167 325.055 967.966 325.055V325.063ZM1163.7 361.317H1049.47V245.798H1162.26V283.019H1097.28V290.879H1159.37V313.985H1097.28V322.49H1163.7V361.317Z" fill="white"/>
</svg>
