<svg width="1653" height="771" viewBox="0 0 1653 771" fill="none" xmlns="http://www.w3.org/2000/svg">
<path d="M1054.55 364.43L1053.12 371.16L1043.94 399.3H1064.95L1055.97 371.36L1054.55 364.43Z" fill="#1D1D1B"/>
<path d="M1651.81 360.15H1590.47C1588.23 354.24 1580.68 351.18 1567.83 351.18C1556.61 351.18 1553.35 354.04 1553.35 357.09C1553.35 358.11 1554.37 359.33 1556 359.95C1559.88 361.58 1569.87 362.6 1592.91 364.23C1607.39 365.25 1619.42 367.29 1629.21 370.55C1639.58 373.94 1647.29 378.82 1652.33 385.75C1652.33 384.94 1652.36 384.15 1652.36 383.33C1652.36 375.46 1652.14 367.76 1651.8 360.15H1651.81Z" fill="#1D1D1B"/>
<path d="M893.65 364.02H873.26V386.66H893.86C906.71 386.66 910.58 383.4 910.58 375.44C910.58 367.48 906.5 364.02 893.65 364.02Z" fill="#1D1D1B"/>
<path d="M1575.17 463.54C1553.76 463.54 1537.24 461.5 1524.6 457.42C1499.52 448.86 1488.5 433.36 1485.04 410.93H1556.82C1559.06 417.66 1570.48 420.11 1581.09 420.11C1591.7 420.11 1595.16 418.28 1595.16 415.01C1595.16 413.38 1594.34 412.36 1592.1 411.54C1588.22 409.7 1577.62 408.48 1553.76 406.85C1510.12 403.79 1488.71 391.35 1488.71 361.78C1488.71 350.36 1491.97 340.78 1498.5 332.62C1511.55 316.31 1536.02 307.54 1569.87 307.54C1586.59 307.54 1600.46 309.38 1612.29 312.64C1629.97 317.63 1642.49 327.11 1650.7 342.22C1639.28 202.4 1568.34 107.65 1447.93 57.25C1383.53 28.63 1307.89 15.34 1218.96 15.34H813.15V134.58C789.93 88.31 743.41 51.78 669.55 27.6C613.33 8.18001 540.75 0 448.76 0C264.76 0 136.99 31.69 68.5 116.53C34.77 157.42 17.39 228.11 14.32 300.69H322C323.02 276.16 341.42 260.82 412.98 260.82C484.54 260.82 497.82 272.06 497.82 288.42C497.82 304.78 486.58 316.02 422.18 316.02H343.47V470.37H421.16C496.8 470.37 507.02 475.48 507.02 494.9C507.02 512.28 485.55 526.59 418.09 526.59C342.45 526.59 329.16 515.35 326.09 489.79H0C1.02 583.83 21.47 645 81.78 694.07C143.11 745.18 247.38 770.74 423.2 770.74C629.94 770.74 756.86 723.37 813.15 642.16V751.31H1221.01C1393.76 751.31 1525.63 696.11 1598.2 586.74C1626.06 544.95 1642.77 496.11 1649.25 439.82C1636.94 454.72 1613.47 463.54 1575.18 463.54H1575.17ZM873.26 434.17V459.25H812.18C782.47 426.5 736.39 406.58 679.77 396.56C746.08 381.15 789.47 351.21 812.18 312.43H894.47C949.73 312.43 973.19 334.25 973.19 375.03C973.19 415.81 948.72 434.17 894.88 434.17H873.26ZM1084.12 459.25L1078.21 440.9H1030.29L1024.38 459.25H958.31L1017.04 312.42H1092.9L1150 459.25H1084.13H1084.12ZM1230.33 413.17C1241.55 413.17 1248.07 409.7 1251.33 403.18H1222.58V377.69H1319.45V459.26H1260.92L1257.25 418.27C1255.82 429.49 1253.17 438.25 1249.09 444.78C1241.14 457.83 1227.27 463.13 1205.65 463.13C1162.82 463.13 1141.62 439.27 1141.62 390.94C1141.62 336.49 1174.66 308.55 1231.55 308.55C1283.55 308.55 1315.37 327.31 1319.65 370.95H1248.48C1245.42 365.85 1240.73 363 1230.33 363C1215.04 363 1207.9 371.16 1207.9 389.1C1207.9 404.6 1212.79 413.16 1230.33 413.16V413.17ZM1479.12 459.25H1333.92V312.42H1477.28V359.73H1394.69V369.72H1473.61V399.09H1394.69V409.9H1479.12V459.25Z" fill="#1D1D1B"/>
</svg>
